<?xml version="1.0" encoding="UTF-8" standalone="no"?><svg xmlns="http://www.w3.org/2000/svg" xmlns:xlink="http://www.w3.org/1999/xlink" contentScriptType="application/ecmascript" contentStyleType="text/css" height="612px" preserveAspectRatio="none" style="width:940px;height:612px;" version="1.1" viewBox="0 0 940 612" width="940px" zoomAndPan="magnify"><defs/><g><!--MD5=[1f9bad3cfdefa2426c0ec10a1ef02dd9]
entity __ity--><rect fill="#F8F8F8" height="34.4844" rx="3" ry="3" style="stroke: #000000; stroke-width: 0.5;" width="45" x="782.5" y="169"/><text fill="#000000" font-family="Tahoma, sans-serif" font-size="12" lengthAdjust="spacingAndGlyphs" textLength="25" x="792.5" y="191.0059">Сity</text><!--MD5=[5791adadcff0cddb1740619a639c13e4]
entity _AnnoumentStatus--><rect fill="#F8F8F8" height="34.4844" rx="3" ry="3" style="stroke: #000000; stroke-width: 0.5;" width="122" x="744" y="255"/><text fill="#000000" font-family="Tahoma, sans-serif" font-size="12" lengthAdjust="spacingAndGlyphs" textLength="102" x="754" y="277.0059">AnnoumentStatus</text><!--MD5=[e2db1b917e9ae45f18942d92fe379195]
entity _AnnoumenTypes--><rect fill="#F8F8F8" height="34.4844" rx="3" ry="3" style="stroke: #000000; stroke-width: 0.5;" width="115" x="747.5" y="341"/><text fill="#000000" font-family="Tahoma, sans-serif" font-size="12" lengthAdjust="spacingAndGlyphs" textLength="95" x="757.5" y="363.0059">AnnoumenTypes</text><ellipse cx="618.2009" cy="537.9402" fill="#F8F8F8" rx="82.7009" ry="18.9402" style="stroke: #383838; stroke-width: 0.5;"/><text fill="#000000" font-family="Tahoma, sans-serif" font-size="12" lengthAdjust="spacingAndGlyphs" textLength="142" x="547.2009" y="541.6824">announcementController</text><ellipse cx="288.3686" cy="239.7737" fill="#F8F8F8" rx="74.3686" ry="17.2737" style="stroke: #383838; stroke-width: 0.5;"/><text fill="#000000" font-family="Tahoma, sans-serif" font-size="12" lengthAdjust="spacingAndGlyphs" textLength="123" x="226.8686" y="243.5159">AnnouncementRouter</text><ellipse cx="618.1505" cy="384.1301" fill="#F8F8F8" rx="61.1505" ry="14.6301" style="stroke: #383838; stroke-width: 0.5;"/><text fill="#000000" font-family="Tahoma, sans-serif" font-size="12" lengthAdjust="spacingAndGlyphs" textLength="91" x="572.6505" y="387.8723">articleController</text><ellipse cx="288.4117" cy="288.242" fill="#F8F8F8" rx="53.9117" ry="13.242" style="stroke: #383838; stroke-width: 0.5;"/><text fill="#000000" font-family="Tahoma, sans-serif" font-size="12" lengthAdjust="spacingAndGlyphs" textLength="72" x="252.4117" y="291.9842">ArticleRouter</text><!--MD5=[87daf1b00fe77ee735d5d78eab2c8df3]
entity _ArticleStatus--><rect fill="#F8F8F8" height="34.4844" rx="3" ry="3" style="stroke: #000000; stroke-width: 0.5;" width="92" x="759" y="83"/><text fill="#000000" font-family="Tahoma, sans-serif" font-size="12" lengthAdjust="spacingAndGlyphs" textLength="72" x="769" y="105.0059">ArticleStatus</text><ellipse cx="288.3406" cy="331.242" fill="#F8F8F8" rx="46.8406" ry="13.242" style="stroke: #383838; stroke-width: 0.5;"/><text fill="#000000" font-family="Tahoma, sans-serif" font-size="12" lengthAdjust="spacingAndGlyphs" textLength="62" x="257.3406" y="334.9842">AuthRouter</text><ellipse cx="617.8275" cy="587.8655" fill="#F8F8F8" rx="57.3275" ry="13.8655" style="stroke: #383838; stroke-width: 0.5;"/><text fill="#000000" font-family="Tahoma, sans-serif" font-size="12" lengthAdjust="spacingAndGlyphs" textLength="81" x="577.3275" y="591.6077">chatController</text><ellipse cx="288.5477" cy="460.242" fill="#F8F8F8" rx="47.5477" ry="13.242" style="stroke: #383838; stroke-width: 0.5;"/><text fill="#000000" font-family="Tahoma, sans-serif" font-size="12" lengthAdjust="spacingAndGlyphs" textLength="63" x="257.0477" y="463.9842">ChatRouter</text><ellipse cx="288.7193" cy="374.242" fill="#F8F8F8" rx="44.7193" ry="13.242" style="stroke: #383838; stroke-width: 0.5;"/><text fill="#000000" font-family="Tahoma, sans-serif" font-size="12" lengthAdjust="spacingAndGlyphs" textLength="59" x="259.2193" y="377.9842">checkAuth</text><ellipse cx="444.8406" cy="434.242" fill="#F8F8F8" rx="46.8406" ry="13.242" style="stroke: #383838; stroke-width: 0.5;"/><text fill="#000000" font-family="Tahoma, sans-serif" font-size="12" lengthAdjust="spacingAndGlyphs" textLength="62" x="413.8406" y="437.9842">controllers</text><ellipse cx="915.4434" cy="272.1547" fill="#F8F8F8" rx="14.4434" ry="12.1547" style="stroke: #383838; stroke-width: 0.5;"/><text fill="#000000" font-family="Tahoma, sans-serif" font-size="12" lengthAdjust="spacingAndGlyphs" textLength="14" x="908.4434" y="275.8969">db</text><ellipse cx="618.0995" cy="433.8199" fill="#F8F8F8" rx="79.5995" ry="18.3199" style="stroke: #383838; stroke-width: 0.5;"/><text fill="#000000" font-family="Tahoma, sans-serif" font-size="12" lengthAdjust="spacingAndGlyphs" textLength="135" x="550.5995" y="437.5621">defaultValues.controller</text><ellipse cx="288.3757" cy="507.1751" fill="#F8F8F8" rx="71.3757" ry="16.6751" style="stroke: #383838; stroke-width: 0.5;"/><text fill="#000000" font-family="Tahoma, sans-serif" font-size="12" lengthAdjust="spacingAndGlyphs" textLength="116" x="230.3757" y="510.9173">DefaultValuesRouter</text><ellipse cx="92.284" cy="303.1568" fill="#F8F8F8" rx="86.284" ry="19.6568" style="stroke: #383838; stroke-width: 0.5;"/><text fill="#000000" font-family="Tahoma, sans-serif" font-size="12" font-weight="bold" lengthAdjust="spacingAndGlyphs" textLength="150" x="17.284" y="306.899">handleValidationErrors</text><ellipse cx="92.7487" cy="353.242" fill="#F8F8F8" rx="27.7487" ry="13.242" style="stroke: #383838; stroke-width: 0.5;"/><text fill="#000000" font-family="Tahoma, sans-serif" font-size="12" font-weight="bold" lengthAdjust="spacingAndGlyphs" textLength="35" x="75.2487" y="356.9842">index</text><ellipse cx="445.234" cy="196.242" fill="#F8F8F8" rx="36.234" ry="13.242" style="stroke: #383838; stroke-width: 0.5;"/><text fill="#000000" font-family="Tahoma, sans-serif" font-size="12" lengthAdjust="spacingAndGlyphs" textLength="47" x="421.734" y="199.9842">initialize</text><ellipse cx="617.8341" cy="229.0668" fill="#F8F8F8" rx="85.8341" ry="19.5668" style="stroke: #383838; stroke-width: 0.5;"/><text fill="#000000" font-family="Tahoma, sans-serif" font-size="12" lengthAdjust="spacingAndGlyphs" textLength="149" x="543.3341" y="232.809">initializeAnnoumentStatus</text><ellipse cx="617.8136" cy="286.0627" fill="#F8F8F8" rx="90.8136" ry="20.5627" style="stroke: #383838; stroke-width: 0.5;"/><text fill="#000000" font-family="Tahoma, sans-serif" font-size="12" lengthAdjust="spacingAndGlyphs" textLength="160" x="537.8136" y="289.8049">initializeAnnouncementType</text><ellipse cx="618.1526" cy="115.9305" fill="#F8F8F8" rx="72.6526" ry="16.9305" style="stroke: #383838; stroke-width: 0.5;"/><text fill="#000000" font-family="Tahoma, sans-serif" font-size="12" lengthAdjust="spacingAndGlyphs" textLength="119" x="558.6526" y="119.6727">initializeArticleStatus</text><ellipse cx="618.0833" cy="179.242" fill="#F8F8F8" rx="51.0833" ry="13.242" style="stroke: #383838; stroke-width: 0.5;"/><text fill="#000000" font-family="Tahoma, sans-serif" font-size="12" lengthAdjust="spacingAndGlyphs" textLength="68" x="584.0833" y="182.9842">initializeCity</text><ellipse cx="617.933" cy="486.0866" fill="#F8F8F8" rx="68.433" ry="16.0866" style="stroke: #383838; stroke-width: 0.5;"/><text fill="#000000" font-family="Tahoma, sans-serif" font-size="12" lengthAdjust="spacingAndGlyphs" textLength="109" x="563.433" y="489.8288">messageController</text><ellipse cx="288.4845" cy="554.8969" fill="#F8F8F8" rx="59.9845" ry="14.3969" style="stroke: #383838; stroke-width: 0.5;"/><text fill="#000000" font-family="Tahoma, sans-serif" font-size="12" lengthAdjust="spacingAndGlyphs" textLength="88" x="244.4845" y="558.6391">MessageRouter</text><ellipse cx="804.9056" cy="405.242" fill="#F8F8F8" rx="33.4056" ry="13.242" style="stroke: #383838; stroke-width: 0.5;"/><text fill="#000000" font-family="Tahoma, sans-serif" font-size="12" lengthAdjust="spacingAndGlyphs" textLength="43" x="783.4056" y="408.9842">models</text><ellipse cx="617.8275" cy="337.8655" fill="#F8F8F8" rx="57.3275" ry="13.8655" style="stroke: #383838; stroke-width: 0.5;"/><text fill="#000000" font-family="Tahoma, sans-serif" font-size="12" lengthAdjust="spacingAndGlyphs" textLength="81" x="577.3275" y="341.6077">userController</text><ellipse cx="288.5477" cy="417.242" fill="#F8F8F8" rx="47.5477" ry="13.242" style="stroke: #383838; stroke-width: 0.5;"/><text fill="#000000" font-family="Tahoma, sans-serif" font-size="12" lengthAdjust="spacingAndGlyphs" textLength="63" x="257.0477" y="420.9842">UserRouter</text><ellipse cx="444.8345" cy="288.242" fill="#F8F8F8" rx="26.3345" ry="13.242" style="stroke: #383838; stroke-width: 0.5;"/><text fill="#000000" font-family="Tahoma, sans-serif" font-size="12" lengthAdjust="spacingAndGlyphs" textLength="33" x="428.3345" y="291.9842">valids</text><!--MD5=[0ab7924569caab97c8bbe24ccd67c594]
link announcementController to db--><path d="M682.307,526.0139 C738.79,511.987 819.538,483.137 866,427 C900.188,385.694 910.346,320.226 913.31,289.285 " fill="none" id="announcementController-&gt;db" style="stroke: #000000; stroke-width: 0.5;"/><polygon fill="#000000" points="913.784,283.924,909.0074,292.537,913.3439,288.9046,916.9764,293.2411,913.784,283.924" style="stroke: #000000; stroke-width: 0.5;"/><!--MD5=[38da41c3573fb80331aeed674e232ae5]
link announcementController to models--><path d="M681.268,525.5562 C691.114,521.8808 700.752,517.1318 709,511 C731.653,494.158 725.483,479.307 744,458 C756.368,443.768 772.478,429.736 784.89,419.689 " fill="none" id="announcementController-&gt;models" style="stroke: #000000; stroke-width: 0.5;"/><polygon fill="#000000" points="788.947,416.44,779.4217,418.9439,785.0443,419.5656,784.4226,425.1882,788.947,416.44" style="stroke: #000000; stroke-width: 0.5;"/><!--MD5=[3bfaa1e42479e19282531b4f6ae98d3e]
link AnnouncementRouter to controllers--><path d="M340.251,252.76 C348.486,256.411 356.449,261.07 363,267 C408.809,308.461 431.437,381.5 439.91,415.554 " fill="none" id="AnnouncementRouter-&gt;controllers" style="stroke: #000000; stroke-width: 0.5;"/><polygon fill="#000000" points="441.15,420.673,442.9183,410.9842,439.9727,415.8136,435.1433,412.8679,441.15,420.673" style="stroke: #000000; stroke-width: 0.5;"/><!--MD5=[f2f7149f3d425705c0d22fff8d54683f]
link AnnouncementRouter to valids--><path d="M334.188,253.884 C361.033,262.224 394.299,272.559 417.139,279.655 " fill="none" id="AnnouncementRouter-&gt;valids" style="stroke: #000000; stroke-width: 0.5;"/><polygon fill="#000000" points="422.135,281.207,414.7277,274.7161,417.3603,279.723,412.3533,282.3556,422.135,281.207" style="stroke: #000000; stroke-width: 0.5;"/><!--MD5=[dd5a38108fa588c229429ebb1d69758e]
link articleController to models--><path d="M673.506,390.187 C703.782,393.624 740.631,397.807 767.44,400.85 " fill="none" id="articleController-&gt;models" style="stroke: #000000; stroke-width: 0.5;"/><polygon fill="#000000" points="772.663,401.443,764.1705,396.4554,767.6948,400.8802,763.2699,404.4045,772.663,401.443" style="stroke: #000000; stroke-width: 0.5;"/><!--MD5=[ed28a3eff8b799a8bfe513f610234337]
link ArticleRouter to controllers--><path d="M332.696,295.498 C343.302,298.746 354.142,303.385 363,310 C400.626,338.102 425.792,389.218 437.126,416.208 " fill="none" id="ArticleRouter-&gt;controllers" style="stroke: #000000; stroke-width: 0.5;"/><polygon fill="#000000" points="439.081,420.956,439.3516,411.1109,437.1766,416.3329,431.9546,414.1579,439.081,420.956" style="stroke: #000000; stroke-width: 0.5;"/><!--MD5=[73b36453d15b3a7878c8ede30211995b]
link ArticleRouter to valids--><path d="M342.67,288 C366.228,288 393.105,288 413.256,288 " fill="none" id="ArticleRouter-&gt;valids" style="stroke: #000000; stroke-width: 0.5;"/><polygon fill="#000000" points="418.49,288,409.49,284,413.49,288,409.49,292,418.49,288" style="stroke: #000000; stroke-width: 0.5;"/><!--MD5=[5900680b4ea849eeebc929f3894d7287]
link AuthRouter to controllers--><path d="M327.254,338.464 C339.212,341.813 352.134,346.515 363,353 C391.259,369.867 416.831,398.775 431.381,417.108 " fill="none" id="AuthRouter-&gt;controllers" style="stroke: #000000; stroke-width: 0.5;"/><polygon fill="#000000" points="434.489,421.076,432.0881,411.5243,431.4058,417.1398,425.7902,416.4574,434.489,421.076" style="stroke: #000000; stroke-width: 0.5;"/><!--MD5=[b3134cf93109c949e72cb111f3d40274]
link AuthRouter to valids--><path d="M322.265,321.881 C350.168,314.115 389.815,303.081 416.194,295.739 " fill="none" id="AuthRouter-&gt;valids" style="stroke: #000000; stroke-width: 0.5;"/><polygon fill="#000000" points="421.286,294.322,411.5432,292.8803,416.4689,295.662,413.6872,300.5877,421.286,294.322" style="stroke: #000000; stroke-width: 0.5;"/><!--MD5=[e012a3e632769175760585a4ebde25b0]
link chatController to db--><path d="M675.14,586.4312 C732.029,581.6462 818.26,565.0277 866,510 C894.937,476.646 908.987,338.582 913.142,289.452 " fill="none" id="chatController-&gt;db" style="stroke: #000000; stroke-width: 0.5;"/><polygon fill="#000000" points="913.578,284.179,908.8485,292.818,913.1651,289.1619,916.8212,293.4786,913.578,284.179" style="stroke: #000000; stroke-width: 0.5;"/><!--MD5=[1849acb6a250d02eb252979a88bdc3c0]
link chatController to models--><path d="M671.13,582.5762 C684.414,579.3147 698.023,574.1511 709,566 C758.961,528.9005 787.375,457.056 798.492,423.327 " fill="none" id="chatController-&gt;models" style="stroke: #000000; stroke-width: 0.5;"/><polygon fill="#000000" points="800.128,418.252,793.5592,425.5903,798.5937,423.0108,801.1732,428.0452,800.128,418.252" style="stroke: #000000; stroke-width: 0.5;"/><!--MD5=[e8c19d0bc4d7512c6cb4548cda2d3654]
link ChatRouter to controllers--><path d="M329.288,453.304 C350.733,449.695 377.261,445.231 399.403,441.505 " fill="none" id="ChatRouter-&gt;controllers" style="stroke: #000000; stroke-width: 0.5;"/><polygon fill="#000000" points="404.347,440.673,394.8079,438.2222,399.4163,441.5029,396.1357,446.1113,404.347,440.673" style="stroke: #000000; stroke-width: 0.5;"/><!--MD5=[784308b483dcde63d4ce19c0a72e0fc2]
link controllers to announcementController--><path d="M456.133,446.838 C470.255,463.894 497.464,493.862 527,511 C535.17,515.7409 544.249,519.7185 553.408,523.0355 " fill="none" id="controllers-&gt;announcementController" style="stroke: #000000; stroke-width: 0.5;"/><polygon fill="#000000" points="558.2,524.7104,551.0223,517.9665,553.4796,523.0617,548.3844,525.519,558.2,524.7104" style="stroke: #000000; stroke-width: 0.5;"/><!--MD5=[96f6e9778b4cb000ac212d77bdfaef73]
link controllers to articleController--><path d="M474.708,423.874 C490.126,418.577 509.508,412.143 527,407 C540.642,402.989 555.563,399.012 569.264,395.522 " fill="none" id="controllers-&gt;articleController" style="stroke: #000000; stroke-width: 0.5;"/><polygon fill="#000000" points="574.252,394.259,564.5451,392.5929,569.4053,395.4875,566.5106,400.3476,574.252,394.259" style="stroke: #000000; stroke-width: 0.5;"/><!--MD5=[d90ffea573cb013ff266178e5d8ed522]
link controllers to chatController--><path d="M450.246,447.237 C459.56,474.069 484.42,534.9493 527,566 C536.666,573.0488 548.312,577.8588 559.972,581.1359 " fill="none" id="controllers-&gt;chatController" style="stroke: #000000; stroke-width: 0.5;"/><polygon fill="#000000" points="564.964,582.4486,557.2787,576.2894,560.1287,581.1758,555.2423,584.0258,564.964,582.4486" style="stroke: #000000; stroke-width: 0.5;"/><!--MD5=[72c3bd77b7fb296dafd7f458ca21e815]
link controllers to defaultValues.controller--><path d="M492.275,434 C504.96,434 519.116,434 533.211,434 " fill="none" id="controllers-&gt;defaultValues.controller" style="stroke: #000000; stroke-width: 0.5;"/><polygon fill="#000000" points="538.397,434,529.397,430,533.397,434,529.397,438,538.397,434" style="stroke: #000000; stroke-width: 0.5;"/><!--MD5=[b06be47b847d0fb79329cfc1915c5103]
link controllers to messageController--><path d="M475.129,444.108 C490.497,449.339 509.704,455.719 527,461 C539.871,464.93 553.854,468.939 566.876,472.563 " fill="none" id="controllers-&gt;messageController" style="stroke: #000000; stroke-width: 0.5;"/><polygon fill="#000000" points="572.007,473.985,564.4026,467.7262,567.1887,472.6494,562.2655,475.4355,572.007,473.985" style="stroke: #000000; stroke-width: 0.5;"/><!--MD5=[7c2c18d613fcfb5a70ec313f2f19e14f]
link controllers to userController--><path d="M456.671,421.117 C470.98,404.69 497.965,376.556 527,361 C538.546,354.814 551.824,350.238 564.574,346.874 " fill="none" id="controllers-&gt;userController" style="stroke: #000000; stroke-width: 0.5;"/><polygon fill="#000000" points="569.618,345.597,559.912,343.9255,564.7706,346.8228,561.8733,351.6813,569.618,345.597" style="stroke: #000000; stroke-width: 0.5;"/><!--MD5=[1c365da724398aa3bb4250a9f9ba5a1c]
link defaultValues.controller to models--><path d="M684.484,423.735 C712.82,419.293 744.864,414.27 768.633,410.544 " fill="none" id="defaultValues.controller-&gt;models" style="stroke: #000000; stroke-width: 0.5;"/><polygon fill="#000000" points="773.576,409.769,764.0652,407.2109,768.6363,410.5432,765.3039,415.1144,773.576,409.769" style="stroke: #000000; stroke-width: 0.5;"/><!--MD5=[43269eeb27cb2fffcf670f231e3ee395]
link DefaultValuesRouter to controllers--><path d="M332.837,493.924 C342.896,490.434 353.45,486.396 363,482 C383.766,472.441 406.017,459.001 421.933,448.773 " fill="none" id="DefaultValuesRouter-&gt;controllers" style="stroke: #000000; stroke-width: 0.5;"/><polygon fill="#000000" points="426.247,445.979,416.5182,447.5122,422.0498,448.6962,420.8657,454.2278,426.247,445.979" style="stroke: #000000; stroke-width: 0.5;"/><!--MD5=[37086b8a2ade86ab1ae6f653246ad87e]
link <b>index</b> to AnnouncementRouter--><path d="M120.215,351.611 C138.422,349.443 162.184,344.081 179,331 C204.59,311.095 189.439,288.162 214,267 C219.523,262.242 225.957,258.292 232.678,255.021 " fill="none" id="&lt;b&gt;index&lt;/b&gt;-&gt;AnnouncementRouter" style="stroke: #000000; stroke-width: 1.0;"/><polygon fill="#000000" points="237.369,252.863,227.5209,252.9881,232.8261,254.9516,230.8627,260.2568,237.369,252.863" style="stroke: #000000; stroke-width: 1.0;"/><!--MD5=[7b0a493ed20130f09ed6881a26310bb0]
link <b>index</b> to ArticleRouter--><path d="M118.436,348.566 C135.827,345 159.345,339.221 179,331 C195.736,324 197.404,317.325 214,310 C223.844,305.656 234.794,301.862 245.172,298.705 " fill="none" id="&lt;b&gt;index&lt;/b&gt;-&gt;ArticleRouter" style="stroke: #000000; stroke-width: 1.0;"/><polygon fill="#000000" points="250.213,297.206,240.4461,295.9381,245.4205,298.6316,242.727,303.606,250.213,297.206" style="stroke: #000000; stroke-width: 1.0;"/><!--MD5=[f0a96d8f0dc001c3b53bab7e6609c44b]
link <b>index</b> to AuthRouter--><path d="M119.664,350.033 C150.348,346.553 201.826,340.716 239.696,336.421 " fill="none" id="&lt;b&gt;index&lt;/b&gt;-&gt;AuthRouter" style="stroke: #000000; stroke-width: 1.0;"/><polygon fill="#000000" points="244.712,335.852,235.3189,332.8905,239.7438,336.4148,236.2195,340.8396,244.712,335.852" style="stroke: #000000; stroke-width: 1.0;"/><!--MD5=[86259178abfd4a433ceff54ddb22a414]
link <b>index</b> to ChatRouter--><path d="M106.281,364.413 C127.312,382.638 171.166,418.358 214,439 C223.76,443.704 234.77,447.543 245.241,450.591 " fill="none" id="&lt;b&gt;index&lt;/b&gt;-&gt;ChatRouter" style="stroke: #000000; stroke-width: 1.0;"/><polygon fill="#000000" points="250.329,452.024,242.7507,445.7336,245.5163,450.6683,240.5816,453.434,250.329,452.024" style="stroke: #000000; stroke-width: 1.0;"/><!--MD5=[48bd2d7032f5fb08ed74a703e17125b6]
link <b>index</b> to checkAuth--><path d="M119.664,355.832 C150.843,359.207 203.492,364.906 241.518,369.023 " fill="none" id="&lt;b&gt;index&lt;/b&gt;-&gt;checkAuth" style="stroke: #000000; stroke-width: 1.0;"/><polygon fill="#000000" points="246.548,369.567,238.0312,364.6209,241.5771,369.0285,237.1695,372.5744,246.548,369.567" style="stroke: #000000; stroke-width: 1.0;"/><!--MD5=[4ef995c05e45f6b9da1dbee41f7d80db]
link <b>index</b> to db--><path d="M120.199,353.043 C139.122,351.609 163.762,346.54 179,331 C226.324,282.738 176.05,238.933 214,183 C284.058,79.745 319.222,22 444,22 C444,22 444,22 619,22 C729.481,22 783.99,-24.029 866,50 C896.524,77.553 909.497,207.444 913.262,254.73 " fill="none" id="&lt;b&gt;index&lt;/b&gt;-&gt;db" style="stroke: #000000; stroke-width: 1.0;"/><polygon fill="#000000" points="913.656,259.819,916.9497,250.5372,913.2702,254.8339,908.9735,251.1544,913.656,259.819" style="stroke: #000000; stroke-width: 1.0;"/><!--MD5=[76933780a2a1e485a4f33646621fb8dc]
link <b>index</b> to DefaultValuesRouter--><path d="M101.9407,365.565 C119.716,391.102 163.548,449.401 214,482 C220.439,486.16 227.644,489.706 234.958,492.705 " fill="none" id="&lt;b&gt;index&lt;/b&gt;-&gt;DefaultValuesRouter" style="stroke: #000000; stroke-width: 1.0;"/><polygon fill="#000000" points="240.031,494.694,233.1132,487.6837,235.3763,492.8681,230.1919,495.1312,240.031,494.694" style="stroke: #000000; stroke-width: 1.0;"/><!--MD5=[45c978b8ac31f892db8c6b49513e46ce]
link <b>index</b> to initialize--><path d="M120.33,352.74 C139.069,351.134 163.425,345.982 179,331 C218.117,293.373 171.766,248.091 214,214 C270.044,168.761 360.84,178.196 409.912,187.816 " fill="none" id="&lt;b&gt;index&lt;/b&gt;-&gt;initialize" style="stroke: #000000; stroke-width: 1.0;"/><polygon fill="#000000" points="414.817,188.806,406.7855,183.1056,409.9157,187.8175,405.2038,190.9477,414.817,188.806" style="stroke: #000000; stroke-width: 1.0;"/><!--MD5=[a68d7fa57ac60a879cc0f736e0b2f89a]
link <b>index</b> to MessageRouter--><path d="M98.6119,366.016 C112.2,398.923 152.437,486.089 214,532 C220.746,537.0308 228.617,540.9781 236.653,544.0706 " fill="none" id="&lt;b&gt;index&lt;/b&gt;-&gt;MessageRouter" style="stroke: #000000; stroke-width: 1.0;"/><polygon fill="#000000" points="241.669,545.8877,234.5694,539.0616,236.9679,544.1848,231.8447,546.5834,241.669,545.8877" style="stroke: #000000; stroke-width: 1.0;"/><!--MD5=[0a090bf5e0f353e7cddbfecba032c3f6]
link <b>index</b> to UserRouter--><path d="M114.69,361.029 C138.647,369.998 178.891,384.733 214,396 C225.287,399.622 237.645,403.273 248.953,406.492 " fill="none" id="&lt;b&gt;index&lt;/b&gt;-&gt;UserRouter" style="stroke: #000000; stroke-width: 1.0;"/><polygon fill="#000000" points="254.067,407.939,246.4966,401.6391,249.256,406.5773,244.3178,409.3367,254.067,407.939" style="stroke: #000000; stroke-width: 1.0;"/><!--MD5=[6e8e13875bf3fdd270ac6fe69e368837]
link initialize to initializeAnnoumentStatus--><path d="M477.364,202.053 C496.807,205.805 522.596,210.782 546.715,215.436 " fill="none" id="initialize-&gt;initializeAnnoumentStatus" style="stroke: #000000; stroke-width: 0.5;"/><polygon fill="#000000" points="551.834,216.424,543.7546,210.7917,546.9245,215.477,542.2393,218.6469,551.834,216.424" style="stroke: #000000; stroke-width: 0.5;"/><!--MD5=[3c7e70b0c582da28dad5f55cd2a69852]
link initialize to initializeAnnouncementType--><path d="M459.101,208.083 C474.386,221.627 500.904,243.461 527,257 C535.438,261.378 544.663,265.259 553.888,268.644 " fill="none" id="initialize-&gt;initializeAnnouncementType" style="stroke: #000000; stroke-width: 0.5;"/><polygon fill="#000000" points="558.708,270.369,551.5811,263.5714,554.0001,268.685,548.8866,271.104,558.708,270.369" style="stroke: #000000; stroke-width: 0.5;"/><!--MD5=[f74e0d1f815faf503bcd3b5d291329d5]
link initialize to initializeArticleStatus--><path d="M467.654,185.827 C483.965,178.168 506.881,167.414 527,158 C544.267,149.921 563.407,140.986 579.581,133.442 " fill="none" id="initialize-&gt;initializeArticleStatus" style="stroke: #000000; stroke-width: 0.5;"/><polygon fill="#000000" points="584.499,131.148,574.6518,131.3286,579.9679,133.2621,578.0344,138.5783,584.499,131.148" style="stroke: #000000; stroke-width: 0.5;"/><!--MD5=[dbdf009b264d071f2ec0454f3c83d7d7]
link initialize to initializeCity--><path d="M479.784,192.641 C504.158,190.218 537.513,186.902 565.234,184.146 " fill="none" id="initialize-&gt;initializeCity" style="stroke: #000000; stroke-width: 0.5;"/><polygon fill="#000000" points="570.341,183.639,560.9897,180.5483,565.3655,184.1333,561.7805,188.5091,570.341,183.639" style="stroke: #000000; stroke-width: 0.5;"/><!--MD5=[7facd90f5bf13b8d775f4de71161da55]
link initializeAnnoumentStatus to _AnnoumentStatus--><path d="M678.809,242.901 C697.981,247.358 719.303,252.314 738.838,256.854 " fill="none" id="initializeAnnoumentStatus-&gt;_AnnoumentStatus" style="stroke: #000000; stroke-width: 0.5;"/><polygon fill="#000000" points="743.764,257.999,735.9039,252.0644,738.894,256.8665,734.0919,259.8565,743.764,257.999" style="stroke: #000000; stroke-width: 0.5;"/><!--MD5=[15182115a677ec233060c197f2a88700]
link initializeAnnoumentStatus to db--><path d="M703.622,226.832 C751.997,227.643 813.334,232.178 866,247 C877.755,250.308 889.969,256.624 899.199,262.079 " fill="none" id="initializeAnnoumentStatus-&gt;db" style="stroke: #000000; stroke-width: 0.5;"/><polygon fill="#000000" points="903.476,264.671,897.8525,256.5854,899.2,262.0794,893.706,263.4269,903.476,264.671" style="stroke: #000000; stroke-width: 0.5;"/><!--MD5=[91212cdfd51a10a5b9c5546af114b162]
link initializeAnnoumentStatus to models--><path d="M685.842,241.304 C694.453,245.192 702.513,250.298 709,257 C749.718,299.072 704.026,341.221 744,384 C750.548,391.008 759.565,395.678 768.62,398.79 " fill="none" id="initializeAnnoumentStatus-&gt;models" style="stroke: #000000; stroke-width: 0.5;"/><polygon fill="#000000" points="773.639,400.363,766.2475,393.8541,768.8679,398.8674,763.8546,401.4878,773.639,400.363" style="stroke: #000000; stroke-width: 0.5;"/><!--MD5=[54f3d0fc6a4bcd77781919623710ae08]
link initializeAnnouncementType to _AnnoumenTypes--><path d="M671.648,302.621 C683.982,306.771 697.018,311.366 709,316 C726.834,322.897 746.191,331.285 762.752,338.747 " fill="none" id="initializeAnnouncementType-&gt;_AnnoumenTypes" style="stroke: #000000; stroke-width: 0.5;"/><polygon fill="#000000" points="767.345,340.825,760.7953,333.4697,762.7899,338.7632,757.4964,340.7578,767.345,340.825" style="stroke: #000000; stroke-width: 0.5;"/><!--MD5=[0317fb2d73c12dd9927044e8b85f0800]
link initializeAnnouncementType to db--><path d="M686.086,299.691 C736.363,307.457 806.456,312.954 866,298 C878.104,294.96 890.483,288.253 899.705,282.413 " fill="none" id="initializeAnnouncementType-&gt;db" style="stroke: #000000; stroke-width: 0.5;"/><polygon fill="#000000" points="903.964,279.635,894.2404,281.2006,899.7758,282.3662,898.6102,287.9016,903.964,279.635" style="stroke: #000000; stroke-width: 0.5;"/><!--MD5=[24daef2fcd244b09b4cf93a536a56adf]
link initializeAnnouncementType to models--><path d="M683.291,300.519 C692.567,304.505 701.497,309.569 709,316 C734.808,338.12 718.358,361.688 744,384 C751.236,390.296 760.473,394.737 769.52,397.858 " fill="none" id="initializeAnnouncementType-&gt;models" style="stroke: #000000; stroke-width: 0.5;"/><polygon fill="#000000" points="774.512,399.459,767.1636,392.9014,769.7509,397.932,764.7204,400.5192,774.512,399.459" style="stroke: #000000; stroke-width: 0.5;"/><!--MD5=[2f4785dcb31f6e7a491bbea610736480]
link initializeArticleStatus to _ArticleStatus--><path d="M686.313,110.178 C708.599,108.251 732.997,106.141 753.771,104.344 " fill="none" id="initializeArticleStatus-&gt;_ArticleStatus" style="stroke: #000000; stroke-width: 0.5;"/><polygon fill="#000000" points="758.971,103.894,749.6594,100.6855,753.9896,104.3254,750.3497,108.6556,758.971,103.894" style="stroke: #000000; stroke-width: 0.5;"/><!--MD5=[5a75bd55d52640007d8a324047a7de8e]
link initializeArticleStatus to db--><path d="M644.895,100.157 C693.664,72.577 800.138,23.386 866,75 C894.514,97.346 908.519,210.974 912.921,254.762 " fill="none" id="initializeArticleStatus-&gt;db" style="stroke: #000000; stroke-width: 0.5;"/><polygon fill="#000000" points="913.434,259.984,916.5354,250.6362,912.9454,255.0079,908.5737,251.418,913.434,259.984" style="stroke: #000000; stroke-width: 0.5;"/><!--MD5=[d02430dd051327390827ece6c790ed05]
link initializeArticleStatus to models--><path d="M667.468,128.61 C682.971,134.974 698.752,144.348 709,158 C770.018,239.289 678.997,305.861 744,384 C750.191,391.442 759.183,396.249 768.329,399.354 " fill="none" id="initializeArticleStatus-&gt;models" style="stroke: #000000; stroke-width: 0.5;"/><polygon fill="#000000" points="773.113,400.827,765.6887,394.3556,768.3344,399.3556,763.3344,402.0013,773.113,400.827" style="stroke: #000000; stroke-width: 0.5;"/><!--MD5=[417f8a7dbf1a050270a6c524065ea5d3]
link initializeCity to __ity--><path d="M668.577,180.876 C703.439,182.195 748.754,183.91 777.111,184.983 " fill="none" id="initializeCity-&gt;__ity" style="stroke: #000000; stroke-width: 0.5;"/><polygon fill="#000000" points="782.203,185.175,773.3615,180.8359,777.2066,184.985,773.0575,188.8302,782.203,185.175" style="stroke: #000000; stroke-width: 0.5;"/><!--MD5=[531dda3f6cf30383990d71882ff9968e]
link initializeCity to db--><path d="M644.642,167.712 C692.524,148.525 796.923,115.799 866,161 C898.036,181.963 909.035,229.245 912.717,254.812 " fill="none" id="initializeCity-&gt;db" style="stroke: #000000; stroke-width: 0.5;"/><polygon fill="#000000" points="913.396,259.921,916.1759,250.4726,912.7375,254.9645,908.2456,251.5262,913.396,259.921" style="stroke: #000000; stroke-width: 0.5;"/><!--MD5=[68db5017ededbf155481490af1248c59]
link initializeCity to models--><path d="M668.525,181.017 C683.365,184.039 698.473,189.924 709,201 C766.049,261.021 689.926,321.286 744,384 C750.321,391.331 759.354,396.104 768.499,399.211 " fill="none" id="initializeCity-&gt;models" style="stroke: #000000; stroke-width: 0.5;"/><polygon fill="#000000" points="773.277,400.688,765.8603,394.2078,768.5001,399.2109,763.497,401.8508,773.277,400.688" style="stroke: #000000; stroke-width: 0.5;"/><!--MD5=[0dbbaef25518c2aba2f632ea0bfe390d]
link messageController to models--><path d="M667.905,474.913 C681.461,471.172 696.015,466.517 709,461 C735.965,449.542 764.639,431.772 783.343,419.33 " fill="none" id="messageController-&gt;models" style="stroke: #000000; stroke-width: 0.5;"/><polygon fill="#000000" points="787.877,416.289,778.1745,417.9808,783.7247,419.0744,782.6311,424.6245,787.877,416.289" style="stroke: #000000; stroke-width: 0.5;"/><!--MD5=[f20c87bae7e9cb0d2e114083c232ed0e]
link MessageRouter to controllers--><path d="M334.133,545.5411 C344.139,542.2243 354.344,537.8169 363,532 C394.814,510.6214 420.737,473.155 434.123,451.262 " fill="none" id="MessageRouter-&gt;controllers" style="stroke: #000000; stroke-width: 0.5;"/><polygon fill="#000000" points="436.787,446.838,428.7188,452.4864,434.2086,451.1219,435.5731,456.6118,436.787,446.838" style="stroke: #000000; stroke-width: 0.5;"/><!--MD5=[2e5d5e2a88585b5ad5bd25cd6d45db77]
link models to db--><path d="M835.76,399.761 C846.34,396.655 857.678,391.743 866,384 C893.834,358.101 906.476,313.486 911.549,289.114 " fill="none" id="models-&gt;db" style="stroke: #000000; stroke-width: 0.5;"/><polygon fill="#000000" points="912.573,283.949,906.8983,291.9987,911.6001,288.8534,914.7454,293.5553,912.573,283.949" style="stroke: #000000; stroke-width: 0.5;"/><!--MD5=[da21cbfa3eb2001798a30f52e5398428]
link userController to models--><path d="M664.387,346.506 C678.977,350.049 694.985,354.812 709,361 C726.028,368.518 727.313,375.753 744,384 C753.099,388.497 763.404,392.473 772.875,395.723 " fill="none" id="userController-&gt;models" style="stroke: #000000; stroke-width: 0.5;"/><polygon fill="#000000" points="777.74,397.354,770.4788,390.7001,772.9994,395.7643,767.9352,398.285,777.74,397.354" style="stroke: #000000; stroke-width: 0.5;"/><!--MD5=[cd735f2f24dd4615077f29927ea9fbb6]
link UserRouter to controllers--><path d="M332.948,421.781 C352.613,423.944 375.918,426.509 396.089,428.728 " fill="none" id="UserRouter-&gt;controllers" style="stroke: #000000; stroke-width: 0.5;"/><polygon fill="#000000" points="401.145,429.285,392.6368,424.3242,396.175,428.7379,391.7613,432.2761,401.145,429.285" style="stroke: #000000; stroke-width: 0.5;"/><script type="text/plantuml"><![CDATA[MD5=[27aff3bddbf025d42d7b6df285b90203]
@startuml

scale max 1920 width
left to right direction

skinparam nodesep 17
skinparam ranksep 35
skinparam monochrome true
skinparam shadowing false
skinparam defaultFontName Tahoma
skinparam defaultFontSize 12
skinparam roundCorner 6
skinparam dpi 150
skinparam arrowColor black
skinparam arrowThickness 0.5
skinparam packageTitleAlignment left

skinparam usecase {
  borderThickness 0.5
}

skinparam rectangle {
  borderThickness 0.5
}

skinparam component {
  borderThickness 1
}


rectangle "Сity" as __ity
rectangle "AnnoumentStatus" as _AnnoumentStatus
rectangle "AnnoumenTypes" as _AnnoumenTypes
(announcementController)
(AnnouncementRouter)
(articleController)
(ArticleRouter)
rectangle "ArticleStatus" as _ArticleStatus
(AuthRouter)
(chatController)
(ChatRouter)
(checkAuth)
(controllers)
(db)
(defaultValues.controller)
(DefaultValuesRouter)
(<b>handleValidationErrors</b>)
(<b>index</b>)
(initialize)
(initializeAnnoumentStatus)
(initializeAnnouncementType)
(initializeArticleStatus)
(initializeCity)
(messageController)
(MessageRouter)
(models)
(userController)
(UserRouter)
(valids)


(announcementController) --> (db)
(announcementController) --> (models)
(AnnouncementRouter) --> (controllers)
(AnnouncementRouter) --> (valids)
(articleController) --> (models)
(ArticleRouter) --> (controllers)
(ArticleRouter) --> (valids)
(AuthRouter) --> (controllers)
(AuthRouter) --> (valids)
(chatController) --> (db)
(chatController) --> (models)
(ChatRouter) --> (controllers)
(controllers) --> (announcementController)
(controllers) --> (articleController)
(controllers) --> (chatController)
(controllers) --> (defaultValues.controller)
(controllers) --> (messageController)
(controllers) --> (userController)
(defaultValues.controller) --> (models)
(DefaultValuesRouter) --> (controllers)
(<b>index</b>) --[thickness=1]> (AnnouncementRouter)
(<b>index</b>) --[thickness=1]> (ArticleRouter)
(<b>index</b>) --[thickness=1]> (AuthRouter)
(<b>index</b>) --[thickness=1]> (ChatRouter)
(<b>index</b>) --[thickness=1]> (checkAuth)
(<b>index</b>) -[thickness=1]> (db)
(<b>index</b>) --[thickness=1]> (DefaultValuesRouter)
(<b>index</b>) --[thickness=1]> (initialize)
(<b>index</b>) --[thickness=1]> (MessageRouter)
(<b>index</b>) --[thickness=1]> (UserRouter)
(initialize) --> (initializeAnnoumentStatus)
(initialize) --> (initializeAnnouncementType)
(initialize) --> (initializeArticleStatus)
(initialize) --> (initializeCity)
(initializeAnnoumentStatus) --> _AnnoumentStatus
(initializeAnnoumentStatus) --> (db)
(initializeAnnoumentStatus) --> (models)
(initializeAnnouncementType) --> _AnnoumenTypes
(initializeAnnouncementType) --> (db)
(initializeAnnouncementType) --> (models)
(initializeArticleStatus) --> _ArticleStatus
(initializeArticleStatus) --> (db)
(initializeArticleStatus) --> (models)
(initializeCity) --> __ity
(initializeCity) --> (db)
(initializeCity) --> (models)
(messageController) --> (models)
(MessageRouter) --> (controllers)
(models) --> (db)
(userController) --> (models)
(UserRouter) --> (controllers)

@enduml


' View and edit on https://arkit.pro
]]></script></g></svg>